<?xml version="1.0" encoding="UTF-8" standalone="no"?>
<svg
   xmlns:dc="http://purl.org/dc/elements/1.1/"
   xmlns:cc="http://creativecommons.org/ns#"
   xmlns:rdf="http://www.w3.org/1999/02/22-rdf-syntax-ns#"
   xmlns:svg="http://www.w3.org/2000/svg"
   xmlns="http://www.w3.org/2000/svg"
   xml:space="preserve"
   enable-background="new 0 0 159 78"
   viewBox="0 0 159 78"
   height="78px"
   width="159px"
   y="0px"
   x="0px"
   id="Layer_1"
   version="1.1"><metadata
     id="metadata85"><rdf:RDF><cc:Work
         rdf:about=""><dc:format>image/svg+xml</dc:format><dc:type
           rdf:resource="http://purl.org/dc/dcmitype/StillImage" /></cc:Work></rdf:RDF></metadata><defs
     id="defs83" /><g
     id="g3"><path
       id="path5"
       d="M145.082,22.376c0,0,10.189,15.388-7.7,12.304c-17.89-3.084-37.687-23.055-37.687-23.055   s6.552,12.203,26.005,22.535c19.45,10.332,33.006,9.993,29.957,0.346C153.576,27.926,145.082,22.376,145.082,22.376L145.082,22.376   z"
       fill="#00A67E" /><path
       id="path7"
       d="M85.092,32.101c0,0,38.975-24.78,55.461-28.549c16.487-3.769,10.203,5.796,6.57,10.53   c-3.344,4.359-15.301,17.872-15.301,17.872s13.1-17.321-9.838-12.589C109.599,21.92,85.092,32.101,85.092,32.101L85.092,32.101z"
       fill="#034EA1" /><path
       id="path9"
       d="M86.405,5.545c3.21-5.794,17.236-4.261,32.24,3.219c-11.461-4.392-21.21-4.676-23.758-0.08   c-3.266,5.891,9.524,17.786,22.406,25.781c5.394,3.346,8.643,5.519,14.997,8.571c-5.151-1.423-11.225-3.634-22.266-9.547   C92.917,24.323,82.95,11.775,86.405,5.545L86.405,5.545z"
       fill="#F26F21" /><path
       id="path11"
       d="M98.815,49.801h7.476l-3.718-5.107L98.815,49.801L98.815,49.801z M90.071,54.839l8.662-11.01l0.967-1.228   c-0.225-0.705-0.643-1.483-1.404-2.046l5.297,0.001l0.574,0.027l10.869,14.255h-5.107l-1.962-2.678H97.098l-1.959,2.678H90.071   L90.071,54.839z"
       fill="#034EA1" /><polygon
       id="polygon13"
       points="73.625,54.839 78.364,54.839 78.364,43.081 85.882,43.081 85.882,40.584 66.107,40.584    66.107,43.081 73.625,43.081 73.625,54.839  "
       fill="#034EA1" /><path
       id="path15"
       d="M38.173,52.502c3.229,1.883,7.396,2.633,10.99,2.633c5.884,0,11.318-1.793,11.318-4.768   c0-5.924-16.548-2.722-16.548-5.924c0-0.861,1.471-1.93,5.394-1.93c2.492,0,4.617,0.434,6.945,1.703l3.515-1.748   c-2.534-1.429-5.966-2.179-10.215-2.179c-5.842,0-10.623,1.747-10.623,4.291c0,5.809,16.547,2.746,16.547,5.922   c0,1.363-2.533,2.111-6.129,2.134c-2.982,0-5.679-0.794-7.6-1.927L38.173,52.502L38.173,52.502z"
       fill="#034EA1" /><path
       id="path17"
       d="M12.69,43.081v9.26h6.088c5.515,0,9.029-2.108,9.029-4.629c0-2.52-3.514-4.631-9.029-4.631H12.69   L12.69,43.081z M7.951,43.759c-0.089-0.817-0.42-2.267-1.637-3.162l1.637,0.001l10.827-0.014c8.661,0,13.769,3.361,13.769,7.128   c0,3.768-5.312,7.127-13.769,7.127H7.951V43.759L7.951,43.759z"
       fill="#034EA1" /><polygon
       id="polygon19"
       points="8.676,73.91 9.729,73.91 9.729,69.42 12.196,69.42 12.196,68.866 6.222,68.866 6.222,69.42    8.676,69.42 8.676,73.91  "
       fill="#034EA1" /><path
       id="path21"
       d="M17.55,72.221c0.024-0.075,0.036-0.18,0.036-0.316   c0-0.665-0.491-1.706-2.382-1.706c-1.688,0-2.731,0.862-2.731,1.962c0,1.085,1.079,1.825,2.851,1.825   c0.921,0,1.568-0.129,1.939-0.231L17.07,73.29c-0.382,0.097-0.849,0.179-1.604,0.179c-1.054,0-1.951-0.367-1.976-1.256   L17.55,72.221L17.55,72.221z M13.503,71.741c0.084-0.458,0.539-1.069,1.616-1.069c1.174,0,1.461,0.656,1.449,1.069H13.503   L13.503,71.741z"
       fill="#034EA1"
       clip-rule="evenodd"
       fill-rule="evenodd" /><path
       id="path23"
       d="M23.445,73.29c-0.299,0.081-0.694,0.172-1.293,0.172c-1.149,0-2.011-0.517-2.011-1.354   c0-0.757,0.718-1.379,2.047-1.379c0.575,0,0.969,0.091,1.221,0.174l0.24-0.502c-0.288-0.1-0.838-0.195-1.461-0.195   c-1.892,0-3.113,0.814-3.113,1.932c0,1.115,1.137,1.854,2.885,1.854c0.779,0,1.39-0.126,1.664-0.209L23.445,73.29L23.445,73.29z"
       fill="#034EA1" /><path
       id="path25"
       d="M25.46,73.91h1.053v-2.185c0-0.127,0.012-0.224,0.073-0.313c0.204-0.359,0.729-0.659,1.413-0.659   c0.994,0,1.341,0.486,1.341,1.077v2.08h1.054v-2.154c0-1.251-1.246-1.55-2.023-1.55c-0.396,0-0.766,0.067-1.079,0.188   c-0.322,0.104-0.586,0.278-0.753,0.463h-0.024v-2.259H25.46V73.91L25.46,73.91z"
       fill="#034EA1" /><path
       id="path27"
       d="M32.706,73.91h1.053v-2.185c0-0.105,0.025-0.224,0.072-0.307c0.191-0.366,0.731-0.674,1.414-0.674   c0.994,0,1.34,0.494,1.34,1.077v2.088h1.054v-2.161c0-1.244-1.246-1.543-2.048-1.543c-0.958,0-1.628,0.337-1.914,0.674h-0.025   l-0.06-0.591h-0.935c0.036,0.299,0.048,0.6,0.048,0.98V73.91L32.706,73.91z"
       fill="#034EA1" /><path
       id="path29"
       d="M42.322,73.992c1.377,0,2.874-0.582,2.874-1.931   c0-1.099-1.125-1.855-2.79-1.855c-1.592,0-2.874,0.712-2.874,1.924c0,1.144,1.221,1.862,2.779,1.862H42.322L42.322,73.992z    M42.334,73.499c-1.018,0-1.737-0.599-1.737-1.391c0-0.689,0.54-1.407,1.773-1.407c1.245,0,1.736,0.771,1.736,1.385   c0,0.821-0.754,1.413-1.76,1.413H42.334L42.334,73.499z"
       fill="#034EA1"
       clip-rule="evenodd"
       fill-rule="evenodd" /><polygon
       id="polygon31"
       points="47.126,73.91 48.18,73.91 48.18,68.598 47.126,68.598 47.126,73.91  "
       fill="#034EA1" /><path
       id="path33"
       d="M52.898,73.992c1.377,0,2.874-0.582,2.874-1.931   c0-1.099-1.125-1.855-2.79-1.855c-1.593,0-2.874,0.712-2.874,1.924c0,1.144,1.221,1.862,2.778,1.862H52.898L52.898,73.992z    M52.91,73.499c-1.018,0-1.736-0.599-1.736-1.391c0-0.689,0.539-1.407,1.772-1.407c1.246,0,1.737,0.771,1.737,1.385   c0,0.821-0.755,1.413-1.76,1.413H52.91L52.91,73.499z"
       fill="#034EA1"
       clip-rule="evenodd"
       fill-rule="evenodd" /><path
       id="path35"
       d="M62.672,71.276c0-0.442,0.011-0.733,0.048-0.987h-0.935   l-0.035,0.539h-0.024c-0.264-0.299-0.802-0.622-1.809-0.622c-1.341,0-2.622,0.689-2.622,1.916c0,1.009,1.03,1.774,2.467,1.774   c0.897,0,1.533-0.271,1.844-0.606h0.024v0.397c0,0.919-0.79,1.271-1.868,1.271c-0.719,0-1.316-0.135-1.7-0.291l-0.264,0.509   c0.467,0.195,1.234,0.298,1.928,0.298c0.73,0,1.544-0.11,2.119-0.434c0.551-0.321,0.827-0.823,0.827-1.661V71.276L62.672,71.276z    M61.619,72.361c0,0.119-0.025,0.248-0.085,0.354c-0.216,0.425-0.802,0.68-1.46,0.68c-1.125,0-1.712-0.599-1.712-1.303   c0-0.845,0.718-1.377,1.724-1.377c0.779,0,1.281,0.316,1.473,0.704c0.048,0.09,0.061,0.188,0.061,0.292V72.361L61.619,72.361z"
       fill="#034EA1"
       clip-rule="evenodd"
       fill-rule="evenodd" /><path
       id="path37"
       d="M64.229,70.289l2.13,3.344c0.061,0.074,0.084,0.128,0.084,0.165c0,0.045-0.036,0.09-0.084,0.158   c-0.25,0.337-0.598,0.592-0.885,0.733c-0.313,0.172-0.659,0.276-0.923,0.322l0.264,0.553c0.263-0.029,0.766-0.143,1.293-0.418   c0.718-0.397,1.233-1.034,1.988-2.276l1.581-2.581h-1.114l-1.149,2.124c-0.145,0.263-0.264,0.539-0.372,0.758h-0.024   c-0.096-0.219-0.239-0.503-0.384-0.742l-1.256-2.14H64.229L64.229,70.289z"
       fill="#034EA1" /><path
       id="path39"
       d="M78.586,72.324l0.862,1.586h1.113l-2.753-5.044h-1.257   l-2.742,5.044h1.077l0.838-1.586H78.586L78.586,72.324z M75.94,71.814l0.791-1.458c0.155-0.308,0.286-0.62,0.394-0.913h0.037   c0.119,0.293,0.239,0.591,0.407,0.921l0.802,1.45H75.94L75.94,71.814z"
       fill="#034EA1"
       clip-rule="evenodd"
       fill-rule="evenodd" /><path
       id="path41"
       d="M87.125,71.276c0-0.442,0.013-0.733,0.048-0.987h-0.934   l-0.036,0.539h-0.024c-0.263-0.299-0.803-0.622-1.808-0.622c-1.343,0-2.622,0.689-2.622,1.916c0,1.009,1.028,1.774,2.467,1.774   c0.898,0,1.532-0.271,1.844-0.606h0.025v0.397c0,0.919-0.792,1.271-1.869,1.271c-0.719,0-1.318-0.135-1.701-0.291l-0.263,0.509   c0.466,0.195,1.232,0.298,1.929,0.298c0.73,0,1.544-0.11,2.119-0.434c0.55-0.321,0.825-0.823,0.825-1.661V71.276L87.125,71.276z    M86.07,72.361c0,0.119-0.023,0.248-0.082,0.354c-0.215,0.425-0.803,0.68-1.461,0.68c-1.127,0-1.714-0.599-1.714-1.303   c0-0.845,0.719-1.377,1.726-1.377c0.776,0,1.281,0.316,1.473,0.704c0.048,0.09,0.059,0.188,0.059,0.292V72.361L86.07,72.361z"
       fill="#034EA1"
       clip-rule="evenodd"
       fill-rule="evenodd" /><path
       id="path43"
       d="M94.117,72.221c0.024-0.075,0.035-0.18,0.035-0.316   c0-0.665-0.49-1.706-2.382-1.706c-1.688,0-2.729,0.862-2.729,1.962c0,1.085,1.076,1.825,2.849,1.825   c0.923,0,1.569-0.129,1.939-0.231l-0.191-0.464c-0.383,0.097-0.85,0.179-1.604,0.179c-1.053,0-1.95-0.367-1.976-1.256   L94.117,72.221L94.117,72.221z M90.07,71.741c0.084-0.458,0.539-1.069,1.616-1.069c1.173,0,1.46,0.656,1.448,1.069H90.07   L90.07,71.741z"
       fill="#034EA1"
       clip-rule="evenodd"
       fill-rule="evenodd" /><path
       id="path45"
       d="M96.062,73.91h1.055v-2.185c0-0.105,0.023-0.224,0.073-0.307c0.188-0.366,0.728-0.674,1.41-0.674   c0.995,0,1.343,0.494,1.343,1.077v2.088h1.054v-2.161c0-1.244-1.246-1.543-2.049-1.543c-0.957,0-1.628,0.337-1.915,0.674h-0.024   l-0.06-0.591h-0.933c0.032,0.299,0.046,0.6,0.046,0.98V73.91L96.062,73.91z"
       fill="#034EA1" /><path
       id="path47"
       d="M107.257,73.29c-0.298,0.081-0.692,0.172-1.292,0.172c-1.149,0-2.011-0.517-2.011-1.354   c0-0.757,0.719-1.379,2.046-1.379c0.577,0,0.972,0.091,1.222,0.174l0.24-0.502c-0.288-0.1-0.836-0.195-1.462-0.195   c-1.891,0-3.111,0.814-3.111,1.932c0,1.115,1.136,1.854,2.885,1.854c0.779,0,1.391-0.126,1.663-0.209L107.257,73.29L107.257,73.29z   "
       fill="#034EA1" /><path
       id="path49"
       d="M108.723,70.289l2.13,3.344c0.062,0.074,0.086,0.128,0.086,0.165c0,0.045-0.037,0.09-0.086,0.158   c-0.249,0.337-0.598,0.592-0.886,0.733c-0.312,0.172-0.657,0.276-0.921,0.322l0.264,0.553c0.264-0.029,0.767-0.143,1.294-0.418   c0.718-0.397,1.232-1.034,1.987-2.276l1.58-2.581h-1.114l-1.15,2.124c-0.142,0.263-0.263,0.539-0.37,0.758h-0.023   c-0.097-0.219-0.239-0.503-0.384-0.742l-1.256-2.14H108.723L108.723,70.289z"
       fill="#034EA1" /><path
       id="path51"
       d="M7.131,65.729c0.539,0.045,1.149,0.061,1.903,0.061   c1.57,0,2.815-0.255,3.581-0.726c0.742-0.464,1.161-1.138,1.161-1.962c0-0.816-0.419-1.406-1.149-1.817   c-0.707-0.412-1.773-0.622-3.269-0.622c-0.827,0-1.582,0.045-2.228,0.104V65.729L7.131,65.729z M8.185,61.245   c0.275-0.037,0.683-0.066,1.222-0.066c2.204,0,3.281,0.74,3.269,1.945c0,1.36-1.208,2.147-3.436,2.142c-0.407,0-0.791,0-1.055-0.03   V61.245L8.185,61.245z"
       fill="#034EA1"
       clip-rule="evenodd"
       fill-rule="evenodd" /><path
       id="path53"
       d="M20.692,64.051c0.023-0.075,0.036-0.178,0.036-0.313   c0-0.666-0.491-1.707-2.383-1.707c-1.688,0-2.731,0.861-2.731,1.962c0,1.084,1.078,1.825,2.85,1.825   c0.922,0,1.569-0.126,1.939-0.233l-0.191-0.462c-0.383,0.096-0.85,0.179-1.605,0.179c-1.053,0-1.951-0.367-1.975-1.257   L20.692,64.051L20.692,64.051z M16.644,63.573c0.084-0.457,0.539-1.07,1.618-1.07c1.173,0,1.46,0.659,1.448,1.07H16.644   L16.644,63.573z"
       fill="#034EA1"
       clip-rule="evenodd"
       fill-rule="evenodd" /><path
       id="path55"
       d="M24.065,65.745v-3.122h1.389v-0.5h-1.4v-0.197c0-0.553,0.238-1.047,1.125-1.047   c0.311,0,0.515,0.038,0.683,0.082l0.132-0.508c-0.204-0.052-0.515-0.106-0.898-0.106c-0.479,0-1.005,0.098-1.401,0.337   c-0.491,0.293-0.683,0.757-0.683,1.266v0.174h-0.802v0.5h0.802v3.122H24.065L24.065,65.745z"
       fill="#034EA1" /><path
       id="path57"
       d="M31.809,64.051c0.023-0.075,0.035-0.178,0.035-0.313   c0-0.666-0.492-1.707-2.383-1.707c-1.688,0-2.73,0.861-2.73,1.962c0,1.084,1.078,1.825,2.851,1.825c0.921,0,1.568-0.126,1.94-0.233   l-0.193-0.462c-0.383,0.096-0.85,0.179-1.604,0.179c-1.055,0-1.952-0.367-1.976-1.257L31.809,64.051L31.809,64.051z M27.76,63.573   c0.084-0.457,0.54-1.07,1.617-1.07c1.174,0,1.462,0.659,1.45,1.07H27.76L27.76,63.573z"
       fill="#034EA1"
       clip-rule="evenodd"
       fill-rule="evenodd" /><path
       id="path59"
       d="M34.033,65.745h1.052V63.56c0-0.105,0.025-0.227,0.072-0.309c0.192-0.367,0.731-0.673,1.414-0.673   c0.993,0,1.341,0.494,1.341,1.078v2.089h1.053v-2.164c0-1.241-1.245-1.542-2.047-1.542c-0.958,0-1.627,0.337-1.916,0.673h-0.024   l-0.06-0.589h-0.935c0.037,0.298,0.049,0.597,0.049,0.979V65.745L34.033,65.745z"
       fill="#034EA1" /><path
       id="path61"
       d="M45.509,65.123c-0.3,0.082-0.694,0.17-1.293,0.17c-1.149,0-2.011-0.514-2.011-1.354   c0-0.755,0.718-1.377,2.047-1.377c0.575,0,0.97,0.091,1.222,0.172l0.239-0.5c-0.287-0.099-0.838-0.195-1.461-0.195   c-1.892,0-3.113,0.816-3.113,1.931c0,1.115,1.138,1.855,2.885,1.855c0.779,0,1.389-0.127,1.665-0.209L45.509,65.123L45.509,65.123z   "
       fill="#034EA1" /><path
       id="path63"
       d="M52.39,64.051c0.024-0.075,0.036-0.178,0.036-0.313   c0-0.666-0.491-1.707-2.383-1.707c-1.689,0-2.73,0.861-2.73,1.962c0,1.084,1.077,1.825,2.85,1.825c0.922,0,1.568-0.126,1.939-0.233   l-0.192-0.462c-0.383,0.096-0.85,0.179-1.605,0.179c-1.053,0-1.952-0.367-1.976-1.257L52.39,64.051L52.39,64.051z M48.342,63.573   c0.084-0.457,0.539-1.07,1.618-1.07c1.173,0,1.46,0.659,1.448,1.07H48.342L48.342,63.573z"
       fill="#034EA1"
       clip-rule="evenodd"
       fill-rule="evenodd" /><path
       id="path65"
       d="M58.79,65.497c0.431,0.18,1.282,0.328,2.06,0.328c1.904,0,2.814-0.68,2.814-1.459   c0-0.741-0.682-1.145-2.048-1.482c-1.114-0.269-1.605-0.502-1.605-0.972c0-0.346,0.42-0.757,1.521-0.757   c0.731,0,1.27,0.144,1.521,0.239l0.287-0.53c-0.348-0.127-0.959-0.247-1.773-0.247c-1.567,0-2.609,0.583-2.609,1.37   c0,0.702,0.813,1.137,2.13,1.437c1.09,0.255,1.521,0.531,1.521,0.994c0,0.517-0.623,0.861-1.688,0.861   c-0.718,0-1.389-0.141-1.855-0.329L58.79,65.497L58.79,65.497z"
       fill="#034EA1" /><path
       id="path67"
       d="M69.897,65.123c-0.3,0.082-0.695,0.17-1.293,0.17c-1.149,0-2.011-0.514-2.011-1.354   c0-0.755,0.718-1.377,2.047-1.377c0.575,0,0.97,0.091,1.222,0.172l0.239-0.5c-0.287-0.099-0.837-0.195-1.46-0.195   c-1.892,0-3.113,0.816-3.113,1.931c0,1.115,1.138,1.855,2.886,1.855c0.779,0,1.389-0.127,1.665-0.209L69.897,65.123L69.897,65.123z   "
       fill="#034EA1" /><path
       id="path69"
       d="M73.245,65.745v-3.622h-1.054v3.622H73.245L73.245,65.745z    M72.707,61.456c0.418,0,0.682-0.194,0.682-0.428c0-0.231-0.263-0.419-0.67-0.419c-0.407,0-0.683,0.188-0.683,0.419   c0,0.233,0.264,0.428,0.659,0.428H72.707L72.707,61.456z"
       fill="#034EA1"
       clip-rule="evenodd"
       fill-rule="evenodd" /><path
       id="path71"
       d="M80.529,64.051c0.024-0.075,0.036-0.178,0.036-0.313   c0-0.666-0.491-1.707-2.382-1.707c-1.69,0-2.731,0.861-2.731,1.962c0,1.084,1.078,1.825,2.852,1.825   c0.92,0,1.568-0.126,1.938-0.233l-0.192-0.462c-0.382,0.096-0.849,0.179-1.604,0.179c-1.054,0-1.953-0.367-1.976-1.257   L80.529,64.051L80.529,64.051z M76.483,63.573c0.082-0.457,0.539-1.07,1.615-1.07c1.174,0,1.461,0.659,1.45,1.07H76.483   L76.483,63.573z"
       fill="#034EA1"
       clip-rule="evenodd"
       fill-rule="evenodd" /><path
       id="path73"
       d="M82.754,65.745h1.054V63.56c0-0.105,0.023-0.227,0.071-0.309c0.192-0.367,0.73-0.673,1.413-0.673   c0.994,0,1.34,0.494,1.34,1.078v2.089h1.056v-2.164c0-1.241-1.245-1.542-2.048-1.542c-0.959,0-1.629,0.337-1.916,0.673h-0.024   l-0.059-0.589h-0.936c0.036,0.298,0.049,0.597,0.049,0.979V65.745L82.754,65.745z"
       fill="#034EA1" /><path
       id="path75"
       d="M94.229,65.123c-0.299,0.082-0.693,0.17-1.292,0.17c-1.149,0-2.013-0.514-2.013-1.354   c0-0.755,0.72-1.377,2.048-1.377c0.576,0,0.97,0.091,1.222,0.172l0.241-0.5c-0.29-0.099-0.84-0.195-1.463-0.195   c-1.894,0-3.114,0.816-3.114,1.931c0,1.115,1.139,1.855,2.887,1.855c0.779,0,1.389-0.127,1.665-0.209L94.229,65.123L94.229,65.123z   "
       fill="#034EA1" /><path
       id="path77"
       d="M101.11,64.051c0.024-0.075,0.036-0.178,0.036-0.313   c0-0.666-0.491-1.707-2.385-1.707c-1.686,0-2.727,0.861-2.727,1.962c0,1.084,1.077,1.825,2.849,1.825   c0.921,0,1.568-0.126,1.939-0.233l-0.192-0.462c-0.383,0.096-0.85,0.179-1.604,0.179c-1.054,0-1.951-0.367-1.977-1.257   L101.11,64.051L101.11,64.051z M97.063,63.573c0.083-0.457,0.539-1.07,1.616-1.07c1.173,0,1.462,0.659,1.449,1.07H97.063   L97.063,63.573z"
       fill="#034EA1"
       clip-rule="evenodd"
       fill-rule="evenodd" /><path
       id="path79"
       d="M114.217,65.745c-0.479-0.323-0.899-0.606-1.33-0.891   c0.601-0.443,0.946-1.072,1.161-1.865h-0.956c-0.156,0.636-0.409,1.123-0.779,1.475c-0.514-0.359-1.281-0.904-1.965-1.406v-0.022   c1.283-0.396,1.772-0.816,1.772-1.349c0-0.658-0.778-1.069-1.782-1.069c-1.34,0-2.061,0.628-2.061,1.24   c0,0.361,0.275,0.729,0.683,1.059v0.021c-0.921,0.321-1.58,0.785-1.58,1.474c0,0.756,0.909,1.414,2.479,1.414   c0.897,0,1.663-0.172,2.357-0.568c0.313,0.202,0.527,0.345,0.756,0.488H114.217L114.217,65.745z M110.038,65.333   c-0.969,0-1.64-0.442-1.64-1.019c0-0.532,0.6-0.854,1.04-1.024c0.886,0.643,1.784,1.263,2.264,1.586   c-0.384,0.263-0.958,0.457-1.653,0.457H110.038L110.038,65.333z M110.276,61.064c0.66,0,0.934,0.347,0.934,0.653   c0,0.425-0.514,0.697-1.34,0.988c-0.335-0.27-0.609-0.547-0.609-0.906c0-0.389,0.346-0.735,1.005-0.735H110.276L110.276,61.064z"
       fill="#034EA1"
       clip-rule="evenodd"
       fill-rule="evenodd" /></g></svg>